Coordinates
version=1
nRows=16
nColumns=22
inDegrees=yes

Units are S.I. units (second, meters, Newtons, ...)
If the header above contains a line with 'inDegrees', this indicates whether rotational values are in degrees (yes) or radians (no).

endheader
time	pelvis_tilt	pelvis_list	pelvis_rotation	pelvis_tx	pelvis_ty	pelvis_tz	hip_flexion_r	hip_adduction_r	hip_rotation_r	knee_angle_r	ankle_angle_r	subtalar_angle_r	hip_flexion_l	hip_adduction_l	hip_rotation_l	knee_angle_l	ankle_angle_l	subtalar_angle_l	lumbar_extension	lumbar_bending	lumbar_rotation
      1.60000000	     -2.99731434	     -3.34805517	     -1.58683715	     -1.69803475	      1.01301508	     -0.06172556	      6.48467453	      1.86412024	     -6.02380181	    -16.62745246	      9.95337576	      1.34729669	      0.58015875	     -7.09307100	    -14.16865769	     -7.77583809	      9.32285008	      1.61933387	     -2.11020961	      1.12110599	     -2.15701983
      1.61000000	     -2.99834792	     -3.33150851	     -1.54575922	     -1.69774628	      1.01293486	     -0.06096396	      6.49091135	      1.89851006	     -6.02173760	    -16.68342756	     10.00247285	      1.30897275	      0.57002062	     -7.12522929	    -14.14676089	     -7.77382458	      9.30409570	      1.64545145	     -2.13160414	      1.15483176	     -2.17569547
      1.62000000	     -3.00000856	     -3.31981094	     -1.47073016	     -1.69737536	      1.01285227	     -0.06018618	      6.46873763	      1.93795112	     -6.08217086	    -16.69484681	     10.07877621	      1.17733400	      0.56483113	     -7.16661347	    -14.08097527	     -7.77514712	      9.31109456	      1.74666128	     -2.14300070	      1.18858641	     -2.21579307
      1.63000000	     -2.99769905	     -3.30234374	     -1.43213490	     -1.69703459	      1.01277864	     -0.05931253	      6.47096888	      1.97637461	     -6.07691265	    -16.75644502	     10.10934135	      1.13954728	      0.55833526	     -7.20649718	    -14.05660221	     -7.79412743	      9.29652652	      1.77874793	     -2.17221021	      1.21767975	     -2.22981822
      1.64000000	     -2.99661459	     -3.30541015	     -1.35533797	     -1.69659170	      1.01270188	     -0.05843457	      6.43793084	      2.03739897	     -6.14437086	    -16.76050011	     10.14307010	      0.94992267	      0.56394193	     -7.27456150	    -13.98914829	     -7.83246893	      9.33936928	      1.95416193	     -2.18653772	      1.26709377	     -2.26908869
      1.65000000	     -2.99844022	     -3.29255996	     -1.32013043	     -1.69615442	      1.01261958	     -0.05746907	      6.42778860	      2.08583135	     -6.14572659	    -16.80147402	     10.20904083	      0.91339750	      0.56680155	     -7.32760693	    -13.96611928	     -7.87344229	      9.32111074	      1.98333514	     -2.20504880	      1.30248352	     -2.26207742
      1.66000000	     -3.00659741	     -3.30107224	     -1.26052693	     -1.69566500	      1.01251882	     -0.05647390	      6.40793231	      2.15971662	     -6.18662769	    -16.81825304	     10.28691514	      0.81652407	      0.58705054	     -7.41040197	    -13.92671711	     -7.93094081	      9.36008915	      2.06607235	     -2.21274516	      1.35999205	     -2.29275682
      1.67000000	     -3.02019202	     -3.30363666	     -1.20077395	     -1.69516572	      1.01241562	     -0.05544670	      6.39307385	      2.22834342	     -6.23361071	    -16.83180494	     10.30412215	      0.68038357	      0.63193524	     -7.49310510	    -13.87101194	     -8.02731249	      9.40827733	      2.19204118	     -2.21751320	      1.41125062	     -2.29767170
      1.68000000	     -3.03044066	     -3.30496748	     -1.15245390	     -1.69464730	      1.01230934	     -0.05434840	      6.37988949	      2.30051459	     -6.26226654	    -16.85897894	     10.35281486	      0.57800031	      0.67759062	     -7.57951200	    -13.82749720	     -8.13779874	      9.44454115	      2.27345716	     -2.23028215	      1.46079528	     -2.30002557
      1.69000000	     -3.03253339	     -3.30414359	     -1.10932533	     -1.69410231	      1.01220873	     -0.05319422	      6.35735994	      2.37343918	     -6.28077860	    -16.88972386	     10.43173252	      0.51682716	      0.72207608	     -7.66837095	    -13.78986576	     -8.26612632	      9.46550266	      2.31072380	     -2.25577301	      1.50797487	     -2.30301368
      1.70000000	     -3.05265693	     -3.31983940	     -1.05158866	     -1.69351392	      1.01207644	     -0.05201843	      6.34066744	      2.46490989	     -6.33334684	    -16.89847322	     10.46623228	      0.40422894	      0.80996660	     -7.78288579	    -13.72362367	     -8.44225164	      9.54734948	      2.38773278	     -2.25830053	      1.57467191	     -2.29675510
      1.71000000	     -3.06596365	     -3.33015540	     -1.00237245	     -1.69290771	      1.01194606	     -0.05077397	      6.32255099	      2.55475030	     -6.36632500	    -16.92276457	     10.52182681	      0.30084244	      0.90231688	     -7.89763257	    -13.66257040	     -8.64451260	      9.61414326	      2.45376037	     -2.27432438	      1.63261049	     -2.28993637
      1.72000000	     -3.07801034	     -3.34324649	     -0.95054957	     -1.69226725	      1.01180940	     -0.04948443	      6.30083778	      2.65021385	     -6.39733582	    -16.94788392	     10.57961990	      0.20508079	      1.00970357	     -8.02182971	    -13.59434776	     -8.88058130	      9.69092486	      2.51454880	     -2.29492248	      1.69392910	     -2.28007963
      1.73000000	     -3.10155016	     -3.36361945	     -0.89828761	     -1.69160720	      1.01164991	     -0.04814560	      6.29531608	      2.75605378	     -6.42315197	    -16.98330845	     10.61059854	      0.08857118	      1.15093986	     -8.16110690	    -13.50740912	     -9.15970942	      9.77995854	      2.60425127	     -2.30604742	      1.76252429	     -2.27651937
      1.74000000	     -3.11005348	     -3.38854615	     -0.84164117	     -1.69087654	      1.01149592	     -0.04675751	      6.26044700	      2.86930269	     -6.45282070	    -17.00382433	     10.69019989	      0.00860161	      1.29214583	     -8.31226483	    -13.42693071	     -9.47371638	      9.88828011	      2.66089394	     -2.33201993	      1.83004639	     -2.25908904
      1.75000000	     -3.12548709	     -3.42480819	     -0.78064529	     -1.69012225	      1.01132542	     -0.04534427	      6.23303104	      2.99748373	     -6.47073024	    -17.02783942	     10.75154089	     -0.07474492	      1.47142000	     -8.48260523	    -13.32466433	     -9.84658534	     10.00846066	      2.73583081	     -2.35258845	      1.91512187	     -2.25276187
